<?xml version="1.0" standalone="no"?>
<!DOCTYPE svg PUBLIC "-//W3C//DTD SVG 20010904//EN"
 "http://www.w3.org/TR/2001/REC-SVG-20010904/DTD/svg10.dtd">
<svg version="1.0" xmlns="http://www.w3.org/2000/svg"
 width="500.000000pt" height="500.000000pt" viewBox="0 0 500.000000 500.000000"
 preserveAspectRatio="xMidYMid meet">

<g transform="translate(0.000000,500.000000) scale(0.100000,-0.100000)"
fill="#000000" stroke="none">
<path d="M0 2500 l0 -2500 2500 0 2500 0 0 2500 0 2500 -2500 0 -2500 0 0
-2500z m1858 1413 l122 -6 0 -41 0 -42 -317 1 -318 0 -3 -1098 -2 -1098 320 3
320 3 0 -41 c0 -40 -1 -42 -37 -48 -21 -3 -188 -6 -370 -6 l-333 0 0 1190 0
1190 248 0 c137 0 304 -3 370 -7z m340 -566 l2 -557 758 2 757 3 3 558 2 558
48 -3 47 -3 3 -1187 2 -1188 -50 0 -50 0 -2 583 -3 582 -757 3 -758 2 -2 -582
-3 -583 -50 0 -50 0 -3 1175 c-1 646 0 1181 3 1188 3 9 20 12 52 10 l48 -3 3
-558z m249 461 c354 -133 571 -398 638 -782 24 -140 25 -138 -37 -134 l-52 3
-13 90 c-17 122 -55 242 -111 350 -38 72 -66 109 -142 185 -108 108 -193 162
-341 214 l-94 34 -3 42 -3 43 33 -6 c19 -3 75 -20 125 -39z m649 -1241 c3 -3
-1 -49 -10 -102 -72 -421 -313 -710 -700 -840 -41 -14 -79 -25 -85 -25 -6 0
-11 19 -11 44 l0 43 78 28 c347 121 561 387 614 762 7 48 16 91 21 94 10 7 85
4 93 -4z m-1289 -1274 c-3 -10 -5 -4 -5 12 0 17 2 24 5 18 2 -7 2 -21 0 -30z
m676 12 c-7 -21 -13 -19 -13 6 0 11 4 18 10 14 5 -3 7 -12 3 -20z m754 -97
c-2 -24 -4 -5 -4 42 0 47 2 66 4 43 2 -24 2 -62 0 -85z m-1200 0 c-2 -24 -4
-7 -4 37 0 44 2 63 4 43 2 -21 2 -57 0 -80z m440 50 c-3 -8 -6 -5 -6 6 -1 11
2 17 5 13 3 -3 4 -12 1 -19z m-205 -50 c-8 -8 -9 -4 -5 13 4 13 8 18 11 10 2
-7 -1 -18 -6 -23z m-465 0 c-3 -8 -6 -5 -6 6 -1 11 2 17 5 13 3 -3 4 -12 1
-19z m557 6 c3 -8 2 -12 -4 -9 -6 3 -10 10 -10 16 0 14 7 11 14 -7z m343 -6
c-3 -8 -6 -5 -6 6 -1 11 2 17 5 13 3 -3 4 -12 1 -19z m-893 -33 c3 -8 1 -15
-4 -15 -6 0 -10 7 -10 15 0 8 2 15 4 15 2 0 6 -7 10 -15z m959 -12 c-7 -2 -19
-2 -25 0 -7 3 -2 5 12 5 14 0 19 -2 13 -5z m210 0 c-7 -2 -19 -2 -25 0 -7 3
-2 5 12 5 14 0 19 -2 13 -5z"/>
</g>
</svg>
